<?xml version="1.0" encoding="UTF-8"?>
<!-- Generated by Pixelmator Pro 3.6.18 -->
<svg width="754" height="492" viewBox="0 0 754 492" xmlns="http://www.w3.org/2000/svg">
    <path id="Shape" fill="#000000" fill-rule="evenodd" stroke="none" d="M 156.48558 491.442413 C 125.489334 491.442413 98.292183 485.513306 74.892403 473.65509 C 51.492054 461.796844 33.326996 445.346069 20.396082 424.302734 C 7.46517 403.259399 1 379.040466 1 351.645905 C 1 329.800629 5.466188 309.683594 14.400284 291.2948 C 23.333805 272.906006 35.732307 257.104858 51.596359 243.891464 C 67.460411 230.67807 85.893677 221.119049 106.897316 215.214478 C 109.792625 184.862549 117.893433 156.602875 131.201447 130.434631 C 144.508881 104.266388 161.926041 81.437592 183.453491 61.947388 C 204.980942 42.457184 229.379639 27.260071 256.649567 16.356049 C 283.919525 5.452026 312.95575 0 343.75946 0 C 390.748138 0 432.653381 11.571167 469.4758 34.714386 C 506.298218 57.8573 535.147034 89.879669 556.023438 130.782318 C 584.426392 130.782318 610.61261 135.256439 634.58374 144.204651 C 658.554382 153.152893 679.465698 165.731873 697.31958 181.941559 C 715.172852 198.151245 729.082642 217.207489 739.0495 239.110275 C 749.016296 261.013062 754 284.820892 754 310.533752 C 754 336.030029 749.210022 359.758362 739.630005 381.718689 C 730.050049 403.678986 716.675537 422.846039 699.506531 439.219849 C 682.336975 455.593658 662.325378 468.390869 639.470642 477.611481 C 616.615845 486.832123 591.914001 491.442413 565.364441 491.442413 Z"/>
</svg>
