<?xml version="1.0" encoding="UTF-8"?>
<!-- Generated by Pixelmator Pro 3.6.18 -->
<svg width="597" height="610" viewBox="0 0 597 610" xmlns="http://www.w3.org/2000/svg">
    <path id="path1" fill="#000000" fill-rule="evenodd" stroke="none" d="M 298.031067 111.005005 C 291.186401 111.005005 285.281921 108.42041 280.317078 103.252319 C 275.352295 98.083252 272.869629 92.014282 272.869629 85.044556 L 272.869629 26.384216 C 272.869629 19.237549 275.352295 13.118774 280.317078 8.027954 C 285.281921 2.937134 291.186401 0.391724 298.031067 0.391724 C 305.025635 0.391724 311.009766 2.937134 315.984985 8.027954 C 320.960754 13.118774 323.447876 19.237549 323.447876 26.384216 L 323.447876 85.044556 C 323.447876 92.014282 320.960754 98.083252 315.984985 103.252319 C 311.009766 108.42041 305.025635 111.005005 298.031067 111.005005 Z M 432.474792 168.379639 C 427.517456 163.316284 425.029846 157.183838 425.011902 149.982239 C 424.994019 142.780701 427.453247 136.666504 432.389709 131.639709 L 473.157776 89.944702 C 478.097168 84.90271 484.092224 82.367493 491.143494 82.337952 C 498.194275 82.309509 504.179871 84.817322 509.101379 89.862366 C 513.882507 94.727478 516.278564 100.805542 516.289001 108.097107 C 516.299438 115.38916 513.930298 121.555725 509.182007 126.597717 L 468.414429 168.265259 C 463.477539 173.328674 457.440125 175.825256 450.30127 175.755127 C 443.162415 175.684937 437.220093 173.22644 432.474792 168.379639 Z M 487.989929 305.209595 C 487.989929 298.044617 490.477051 291.92688 495.45282 286.855408 C 500.42804 281.784363 506.41217 279.249146 513.406677 279.249146 L 570.556335 279.249146 C 577.398071 279.249146 583.348877 281.784363 588.409241 286.855408 C 593.469543 291.92688 596 298.044617 596 305.209595 C 596 312.179321 593.469543 318.248291 588.409241 323.417358 C 583.348877 328.585999 577.398071 331.170044 570.556335 331.170044 L 513.406677 331.170044 C 506.41217 331.170044 500.42804 328.585999 495.45282 323.417358 C 490.477051 318.248291 487.989929 312.179321 487.989929 305.209595 Z M 432.389709 442.446716 C 437.156372 437.560272 443.065369 435.06366 450.117615 434.956879 C 457.169861 434.850128 463.154968 437.308624 468.073975 442.332336 L 509.155151 483.999878 C 513.93927 488.868042 516.340271 494.902924 516.358215 502.104492 C 516.376099 509.306061 514.012939 515.420227 509.267639 520.447021 C 504.309814 525.330444 498.305237 527.865112 491.252991 528.051208 C 484.200745 528.237305 478.215637 525.818481 473.297119 520.794739 L 432.474792 478.889252 C 427.517456 474.005829 425.029846 467.967407 425.011902 460.772949 C 424.994019 453.57901 427.453247 447.470428 432.389709 442.446716 Z M 298.031067 499.414185 C 305.025635 499.414185 311.009766 501.95401 315.984985 507.034668 C 320.960754 512.114807 323.447876 518.227966 323.447876 525.374634 L 323.447876 584.034973 C 323.447876 591.181641 320.960754 597.295837 315.984985 602.377502 C 311.009766 607.459167 305.025635 610 298.031067 610 C 291.186401 610 285.281921 607.459167 280.317078 602.377502 C 275.352295 597.295837 272.869629 591.181641 272.869629 584.034973 L 272.869629 525.374634 C 272.869629 518.227966 275.352295 512.114807 280.317078 507.034668 C 285.281921 501.95401 291.186401 499.414185 298.031067 499.414185 Z M 163.927826 442.446716 C 168.673126 447.470428 171.036835 453.57901 171.018921 460.772949 C 171.001007 467.967407 168.522827 474.005829 163.582916 478.889252 L 123.020905 520.529358 C 118.102386 525.553101 112.073975 528.011536 104.93512 527.904785 C 97.796265 527.798035 91.749908 525.223633 86.795074 520.181641 C 82.220001 515.157898 79.941406 509.044769 79.95932 501.841156 C 79.977234 494.638062 82.369293 488.602692 87.135498 483.734528 L 127.957336 442.332336 C 132.875854 437.308624 138.904755 434.850128 146.04361 434.956879 C 153.182465 435.06366 159.143707 437.560272 163.927826 442.446716 Z M 108.35498 305.209595 C 108.35498 312.179321 105.863861 318.248291 100.881165 323.417358 C 95.898438 328.585999 89.908325 331.170044 82.911316 331.170044 L 25.734802 331.170044 C 18.91098 331.170044 12.969177 328.585999 7.908813 323.417358 C 2.84845 318.248291 0.318268 312.179321 0.318268 305.209595 C 0.318268 298.044617 2.84845 291.92688 7.908813 286.855408 C 12.969177 281.784363 18.91098 279.249146 25.734802 279.249146 L 82.911316 279.249146 C 89.908325 279.249146 95.898438 281.784363 100.881165 286.855408 C 105.863861 291.92688 108.35498 298.044617 108.35498 305.209595 Z M 163.582916 168.379639 C 158.819702 173.22644 152.916687 175.640747 145.873413 175.622437 C 138.830109 175.604126 132.839996 173.151733 127.903564 168.265259 L 87.108643 126.332336 C 82.360352 121.467224 80.039459 115.38916 80.145477 108.097107 C 80.251495 100.805542 82.694824 94.727478 87.475952 89.862366 C 92.397949 84.817322 98.42688 82.35321 105.56424 82.471191 C 112.702087 82.588074 118.653381 85.079651 123.419586 89.944702 L 163.927826 131.639709 C 168.673126 136.489563 171.036835 142.60376 171.018921 149.982239 C 171.001007 157.360718 168.522827 163.493225 163.582916 168.379639 Z M 298.031067 448.271118 C 278.658691 448.271118 260.538574 444.563568 243.670166 437.148468 C 226.801819 429.733398 211.92984 419.446014 199.054199 406.285828 C 186.178589 393.125122 176.10614 377.936035 168.837402 360.717529 C 161.568634 343.499023 157.934235 324.996399 157.934235 305.209595 C 157.934235 285.422791 161.568634 266.915588 168.837402 249.687927 C 176.10614 232.460266 186.178589 217.271179 199.054199 204.120117 C 211.92984 190.968567 226.801819 180.685791 243.670166 173.270691 C 260.538574 165.855591 278.658691 162.148071 298.031067 162.148071 C 317.401001 162.148071 335.515198 165.855591 352.374573 173.270691 C 369.234009 180.685791 384.105957 190.968567 396.99054 204.120117 C 409.875122 217.271179 419.947083 232.460266 427.206909 249.687927 C 434.466675 266.915588 438.096558 285.422791 438.096558 305.209595 C 438.096558 324.996399 434.466675 343.499023 427.206909 360.717529 C 419.947083 377.936035 409.875122 393.125122 396.99054 406.285828 C 384.105957 419.446014 369.234009 429.733398 352.374573 437.148468 C 335.515198 444.563568 317.401001 448.271118 298.031067 448.271118 Z"/>
</svg>
